:FULLY-SPECIFIED
:FORCE-ALL-JOINTS-BE-3DOF
:DEGREES
170
root 6.55119 16.0883 -25.6788 3.75384 29.863 1.43677
lfemur -26.2511 31.9055 -17.398
ltibia 41.87 0 0
lfoot -7.87783 10.8639 0
ltoes 13.6032 0 0
rfemur -21.0574 -3.40505 -5.1068
rtibia 61.1827 0 0
rfoot 8.40741 -25.6443 0
rtoes 42.4199 0 0
lowerback 1.54288 -5.03162 -1.41481
upperback 0.0567744 -6.74715 -2.34668
thorax -0.920632 -3.36853 -1.45455
lowerneck -9.43122 -7.38849 -1.69909
upperneck 1.69808 -9.90078 5.2959
head 2.56425 -4.77234 1.47208
lclavicle -9.77385e-14 3.10723e-15 0
lhumerus -49.6042 -41.3894 115.479
lradius 52.291 0 0
lwrist 15.3469 0 0
lhand 37.1323 28.463 0
lfingers 7.12502 0 0
lthumb 59.978 42.2625 0
rclavicle -9.77385e-14 3.10723e-15 0
rhumerus -48.4498 -14.3992 -79.4765
rradius 89.3864 0 0
rwrist -4.58429 0 0
rhand -42.7736 -52.8082 0
rfingers 7.12502 0 0
rthumb -15.6443 -442.1 0
171
root 6.5262 16.0784 -25.6715 3.80557 29.44 1.4952
lfemur -25.7238 31.1771 -16.9922
ltibia 41.2167 0 0
lfoot -8.1039 10.2238 0
ltoes 14.3501 0 0
rfemur -21.0472 -3.57289 -5.1925
rtibia 60.8375 0 0
rfoot 7.74079 -25.089 0
rtoes 42.6359 0 0
lowerback 1.44181 -4.98567 -1.40965
upperback 0.0459573 -6.68223 -2.42834
thorax -0.879292 -3.33615 -1.54882
lowerneck -9.49206 -7.28455 -1.62377
upperneck 1.73751 -9.77417 5.27763
head 2.58242 -4.70755 1.45951
lclavicle -9.49898e-14 2.89687e-15 0
lhumerus -49.6951 -41.3977 115.421
lradius 52.3287 0 0
lwrist 15.4379 0 0
lhand 37.2111 28.5088 0
lfingers 7.12502 0 0
lthumb 60.0438 42.2279 0
rclavicle -9.49898e-14 2.89687e-15 0
rhumerus -48.4459 -13.24 -79.0882
rradius 90.0279 0 0
rwrist -4.85673 0 0
rhand -41.4289 -51.9347 0
rfingers 7.12502 0 0
rthumb -14.3609 -441.054 0
172
root 6.48664 16.0627 -25.6599 3.88745 28.7705 1.58767
lfemur -24.8891 30.0242 -16.3497
ltibia 40.1827 0 0
lfoot -8.46174 9.21042 0
ltoes 15.5323 0 0
rfemur -21.0309 -3.83856 -5.32815
rtibia 60.2909 0 0
rfoot 6.68563 -24.21 0
rtoes 42.9778 0 0
lowerback 1.28183 -4.91293 -1.40148
upperback 0.0288353 -6.57946 -2.5576
thorax -0.813856 -3.28491 -1.69803
lowerneck -9.58834 -7.12004 -1.50453
upperneck 1.79993 -9.57378 5.24871
head 2.61118 -4.60501 1.43961
lclavicle -9.0639e-14 2.56391e-15 0
lhumerus -49.839 -41.4109 115.33
lradius 52.3884 0 0
lwrist 15.5819 0 0
lhand 37.3357 28.5812 0
lfingers 7.12502 0 0
lthumb 60.1481 42.1733 0
rclavicle -9.0639e-14 2.56391e-15 0
rhumerus -48.4398 -11.4051 -78.4736
rradius 91.0433 0 0
rwrist -5.28796 0 0
rhand -39.3004 -50.5521 0
rfingers 7.12502 0 0
rthumb -12.3294 -439.398 0
173
root 6.43422 16.042 -25.6446 3.99594 27.8836 1.71019
lfemur -23.7832 28.4966 -15.4986
ltibia 38.8127 0 0
lfoot -8.93584 7.86785 0
ltoes 17.0987 0 0
rfemur -21.0094 -4.19055 -5.50787
rtibia 59.5668 0 0
rfoot 5.28763 -23.0454 0
rtoes 43.4308 0 0
lowerback 1.06987 -4.81656 -1.39066
upperback 0.00615015 -6.44331 -2.72886
thorax -0.72716 -3.21702 -1.89572
lowerneck -9.71591 -6.90207 -1.34656
upperneck 1.88263 -9.30827 5.21039
head 2.64928 -4.46914 1.41325
lclavicle -8.48746e-14 2.12277e-15 0
lhumerus -50.0297 -41.4284 115.208
lradius 52.4676 0 0
lwrist 15.7727 0 0
lhand 37.5008 28.6773 0
lfingers 7.12502 0 0
lthumb 60.2862 42.1009 0
rclavicle -8.48746e-14 2.12277e-15 0
rhumerus -48.4317 -8.97398 -77.6594
rradius 92.3886 0 0
rwrist -5.8593 0 0
rhand -36.4803 -48.7203 0
rfingers 7.12502 0 0
rthumb -9.63785 -437.204 0
174
root 6.37067 16.0169 -25.626 4.12749 26.808 1.85875
lfemur -22.4423 26.6444 -14.4665
ltibia 37.1516 0 0
lfoot -9.51071 6.23993 0
ltoes 18.998 0 0
rfemur -20.9833 -4.61735 -5.72579
rtibia 58.6889 0 0
rfoot 3.59251 -21.6333 0
rtoes 43.9801 0 0
lowerback 0.812869 -4.69971 -1.37754
upperback -0.0213563 -6.27822 -2.93651
thorax -0.622038 -3.1347 -2.13543
lowerneck -9.8706 -6.63777 -1.15501
upperneck 1.9829 -8.98633 5.16393
head 2.69548 -4.3044 1.38128
lclavicle -7.78851e-14 1.58787e-15 0
lhumerus -50.2609 -41.4496 115.061
lradius 52.5636 0 0
lwrist 16.0041 0 0
lhand 37.701 28.7937 0
lfingers 7.12502 0 0
lthumb 60.4537 42.0131 0
rclavicle -7.78851e-14 1.58787e-15 0
rhumerus -48.4219 -6.02619 -76.6721
rradius 94.0199 0 0
rwrist -6.55207 0 0
rhand -33.0609 -46.4991 0
rfingers 7.12502 0 0
rthumb -6.37426 -434.543 0
175
root 6.29769 15.9881 -25.6046 4.27854 25.573 2.02935
lfemur -20.9025 24.5175 -13.2814
ltibia 35.244 0 0
lfoot -10.1708 4.37056 0
ltoes 21.179 0 0
rfemur -20.9533 -5.10745 -5.97603
rtibia 57.6806 0 0
rfoot 1.64597 -20.0118 0
rtoes 44.6109 0 0
lowerback 0.517746 -4.56553 -1.36248
upperback -0.0529424 -6.08864 -3.17497
thorax -0.501325 -3.04017 -2.41069
lowerneck -10.0482 -6.33428 -0.935057
upperneck 2.09805 -8.61664 5.11058
head 2.74853 -4.11523 1.34457
lclavicle -6.98589e-14 9.73635e-16 0
lhumerus -50.5264 -41.4739 114.893
lradius 52.6738 0 0
lwrist 16.2698 0 0
lhand 37.9309 28.9275 0
lfingers 7.12502 0 0
lthumb 60.646 41.9123 0
rclavicle -6.98589e-14 9.73635e-16 0
rhumerus -48.4107 -2.64121 -75.5384
rradius 95.8931 0 0
rwrist -7.34758 0 0
rhand -29.1343 -43.9485 0
rfingers 7.12502 0 0
rthumb -2.62663 -431.488 0
176
root 6.217 15.9562 -25.581 4.44556 24.2075 2.21797
lfemur -19.2 22.1658 -11.9711
ltibia 33.1349 0 0
lfoot -10.9007 2.30366 0
ltoes 23.5904 0 0
rfemur -20.9201 -5.64935 -6.25271
rtibia 56.5659 0 0
rfoot -0.506259 -18.2189 0
rtoes 45.3083 0 0
lowerback 0.191436 -4.41717 -1.34582
upperback -0.0878664 -5.87903 -3.43862
thorax -0.367855 -2.93565 -2.71504
lowerneck -10.2446 -5.99871 -0.691857
upperneck 2.22537 -8.20789 5.05159
head 2.80719 -3.90606 1.30399
lclavicle -6.09846e-14 2.94491e-16 0
lhumerus -50.8199 -41.5008 114.706
lradius 52.7957 0 0
lwrist 16.5636 0 0
lhand 38.1851 29.0753 0
lfingers 7.12502 0 0
lthumb 60.8586 41.8008 0
rclavicle -6.09846e-14 2.94491e-16 0
rhumerus -48.3982 1.10148 -74.2848
rradius 97.9642 0 0
rwrist -8.22717 0 0
rhand -24.7928 -41.1283 0
rfingers 7.12502 0 0
rthumb 1.51703 -428.11 0
177
root 6.13031 15.9219 -25.5556 4.62499 22.7404 2.42062
lfemur -17.3709 19.6393 -10.5633
ltibia 30.869 0 0
lfoot -11.6849 0.0831013 0
ltoes 26.1812 0 0
rfemur -20.8845 -6.23152 -6.54996
rtibia 55.3683 0 0
rfoot -2.81848 -16.2927 0
rtoes 46.0576 0 0
lowerback -0.159131 -4.25777 -1.32792
upperback -0.125386 -5.65384 -3.72187
thorax -0.224463 -2.82336 -3.04202
lowerneck -10.4556 -5.6382 -0.430578
upperneck 2.36215 -7.76875 4.98821
head 2.87021 -3.68135 1.26038
lclavicle -5.14505e-14 -4.35137e-16 0
lhumerus -51.1353 -41.5297 114.505
lradius 52.9266 0 0
lwrist 16.8792 0 0
lhand 38.4582 29.2342 0
lfingers 7.12502 0 0
lthumb 61.0871 41.6811 0
rclavicle -5.14505e-14 -4.35137e-16 0
rhumerus -48.3848 5.12239 -72.9381
rradius 100.189 0 0
rwrist -9.17213 0 0
rhand -20.1285 -38.0985 0
rfingers 7.12502 0 0
rthumb 5.96872 -424.481 0
178
root 6.03934 15.886 -25.5289 4.81329 21.2009 2.63328
lfemur -15.4514 16.988 -9.08597
ltibia 28.4912 0 0
lfoot -12.5078 -2.2472 0
ltoes 28.8999 0 0
rfemur -20.8471 -6.84247 -6.86191
rtibia 54.1115 0 0
rfoot -5.24498 -14.2713 0
rtoes 46.8439 0 0
lowerback -0.527024 -4.09051 -1.30914
upperback -0.164761 -5.41752 -4.01912
thorax -0.0739852 -2.70553 -3.38515
lowerneck -10.677 -5.25987 -0.156386
upperneck 2.50569 -7.3079 4.92171
head 2.93635 -3.44553 1.21462
lclavicle -4.14453e-14 -1.20083e-15 0
lhumerus -51.4662 -41.5601 114.295
lradius 53.064 0 0
lwrist 17.2104 0 0
lhand 38.7448 29.4009 0
lfingers 7.12502 0 0
lthumb 61.3268 41.5554 0
rclavicle -4.14453e-14 -1.20083e-15 0
rhumerus -48.3708 9.34202 -71.5248
rradius 102.524 0 0
rwrist -10.1638 0 0
rhand -15.2337 -34.919 0
rfingers 7.12502 0 0
rthumb 10.6404 -420.672 0
179
root 5.9458 15.849 -25.5015 5.00691 19.6178 2.85194
lfemur -13.4777 14.2617 -7.56688
ltibia 26.0461 0 0
lfoot -13.3539 -4.64335 0
ltoes 31.6955 0 0
rfemur -20.8087 -7.47069 -7.18266
rtibia 52.8191 0 0
rfoot -7.74005 -12.1928 0
rtoes 47.6524 0 0
lowerback -0.905313 -3.91851 -1.28983
upperback -0.205248 -5.17452 -4.32477
thorax 0.0807451 -2.58436 -3.73798
lowerneck -10.9047 -4.87085 0.125554
upperneck 2.65329 -6.83404 4.85332
head 3.00435 -3.20305 1.16757
lclavicle -3.11573e-14 -1.98815e-15 0
lhumerus -51.8065 -41.5913 114.079
lradius 53.2053 0 0
lwrist 17.5509 0 0
lhand 39.0395 29.5723 0
lfingers 7.12502 0 0
lthumb 61.5733 41.4262 0
rclavicle -3.11573e-14 -1.98815e-15 0
rhumerus -48.3564 13.6809 -70.0716
rradius 104.925 0 0
rwrist -11.1835 0 0
rhand -10.2006 -31.6496 0
rfingers 7.12502 0 0
rthumb 15.4441 -416.756 0
180
root 5.85139 15.8117 -25.4739 5.2023 18.0203 3.07262
lfemur -11.4859 11.5105 -6.03389
ltibia 23.5786 0 0
lfoot -14.2078 -7.06145 0
ltoes 34.5167 0 0
rfemur -20.7699 -8.10465 -7.50636
rtibia 51.515 0 0
rfoot -10.258 -10.0953 0
rtoes 48.4683 0 0
lowerback -1.28707 -3.74494 -1.27034
upperback -0.246106 -4.92929 -4.63323
thorax 0.236893 -2.46208 -4.09405
lowerneck -11.1345 -4.47826 0.410076
upperneck 2.80224 -6.35583 4.78431
head 3.07297 -2.95834 1.12009
lclavicle -2.07752e-14 -2.78269e-15 0
lhumerus -52.1499 -41.6227 113.86
lradius 53.3478 0 0
lwrist 17.8946 0 0
lhand 39.3368 29.7452 0
lfingers 7.12502 0 0
lthumb 61.8221 41.2957 0
rclavicle -2.07752e-14 -2.78269e-15 0
rhumerus -48.3418 18.0595 -68.6051
rradius 107.348 0 0
rwrist -12.2125 0 0
rhand -5.12145 -28.3503 0
rfingers 7.12502 0 0
rthumb 20.2919 -412.804 0
181
root 5.75785 15.7747 -25.4465 5.39592 16.4372 3.29128
lfemur -9.51224 8.78418 -4.5148
ltibia 21.1335 0 0
lfoot -15.054 -9.4576 0
ltoes 37.3123 0 0
rfemur -20.7315 -8.73287 -7.82711
rtibia 50.2226 0 0
rfoot -12.753 -8.01675 0
rtoes 49.2768 0 0
lowerback -1.66536 -3.57294 -1.25103
upperback -0.286593 -4.68629 -4.93888
thorax 0.391623 -2.34091 -4.44688
lowerneck -11.3622 -4.08924 0.692016
upperneck 2.94984 -5.88197 4.71592
head 3.14097 -2.71586 1.07304
lclavicle -1.04872e-14 -3.57001e-15 0
lhumerus -52.4902 -41.6539 113.644
lradius 53.4891 0 0
lwrist 18.2351 0 0
lhand 39.6315 29.9166 0
lfingers 7.12502 0 0
lthumb 62.0686 41.1665 0
rclavicle -1.04872e-14 -3.57001e-15 0
rhumerus -48.3274 22.3984 -67.1519
rradius 109.749 0 0
rwrist -13.2322 0 0
rhand -0.0883641 -25.0809 0
rfingers 7.12502 0 0
rthumb 25.0956 -408.888 0
